# xmcd
#
# Track frame offsets:
#	150
#	14659
#	25667
#	36789
#	47255
#	62642
#	72721
#	85732
#	96634
#	107785
#	120767
#	133926
#	143596
#	153315
#	164284
#	174547
#	188292
#	200191
#	216614
#	226125
#	236094
#
# Disc length: 3325 seconds
#
# Revision: 1
# Processed by: cddbd v1.4PL0 Copyright (c) Steve Scherf et al.
# Submitted via: audiograbber 1.82.02
#
DISCID=250cfb15
DTITLE=Charley Pride - Tribute to Jim Reeves
DYEAR=1900
DGENRE=Country
TTITLE0=Guilty
TTITLE1=Welcome To My World
TTITLE2=Adios Amigo
TTITLE3=Is It Really Over
TTITLE4=Blue Side of Lonesome
TTITLE5=Blue Boy
TTITLE6=Distant Drums
TTITLE7=Am I Losing You
TTITLE8=I Guess I'm Crazy
TTITLE9=L Love You Because
TTITLE10=Four Walls
TTITLE11=I'm Gonna Change Everything
TTITLE12=There's A Heartache Following Me
TTITLE13=He'll Have To Go
TTITLE14=I Won't Come In While He's There
TTITLE15=Danny Boy
TTITLE16=Missing You
TTITLE17=The Blizzard
TTITLE18=Billy Bayou
TTITLE19=Snowflake
TTITLE20=Bimbo
EXTD=Rajon Music Group - RMGR0107
EXTT0=
EXTT1=
EXTT2=
EXTT3=
EXTT4=
EXTT5=
EXTT6=
EXTT7=
EXTT8=
EXTT9=
EXTT10=
EXTT11=
EXTT12=
EXTT13=
EXTT14=
EXTT15=
EXTT16=
EXTT17=
EXTT18=
EXTT19=
EXTT20=
PLAYORDER=
